<!--
    Licensed to the Apache Software Foundation (ASF) under one or more
    contributor license agreements.  See the NOTICE file distributed with
    this work for additional information regarding copyright ownership.
    The ASF licenses this file to You under the Apache License, Version 2.0
    (the "License"); you may not use this file except in compliance with
    the License.  You may obtain a copy of the License at

    http://www.apache.org/licenses/LICENSE-2.0

    Unless required by applicable law or agreed to in writing, software
    distributed under the License is distributed on an "AS IS" BASIS,
    WITHOUT WARRANTIES OR CONDITIONS OF ANY KIND, either express or implied.
    See the License for the specific language governing permissions and
    limitations under the License.
-->
<svg xmlns="http://www.w3.org/2000/svg" viewBox="0 0 119 56"><defs><style>.cls-1{fill:none;}.cls-2{fill:#fff;}.cls-3{fill:#456a7d;}.cls-4{fill:#3f3f3f;}</style></defs><title>hdf-header</title><g id="rectangle-for-sizing-2" data-name="rectangle-for-sizing"><rect class="cls-1" width="119" height="56"/></g><g id="logo-hwx"><path id="logo-hwx-2" data-name="logo-hwx" class="cls-2" d="M11,32.85V30.22H9.27v2.62H7.64V26.22H9.27v2.55H11V26.22h1.63v6.62Zm7.13-.69a2.43,2.43,0,0,1-1.85.74,2.43,2.43,0,0,1-1.85-.74,3.4,3.4,0,0,1-.67-2.62,3.4,3.4,0,0,1,.67-2.62,2.43,2.43,0,0,1,1.85-.74,2.43,2.43,0,0,1,1.85.74,3.4,3.4,0,0,1,.67,2.62A3.4,3.4,0,0,1,18.13,32.16Zm-1.2-4.25a.88.88,0,0,0-1.3,0c-.15.2-.24.42-.24,1.63s.09,1.42.24,1.62a.86.86,0,0,0,1.3,0c.15-.2.24-.41.24-1.62S17.07,28.1,16.93,27.91Zm6.35,4.94L22.1,30.38h-.55v2.47H19.92V26.22h2.62a2.12,2.12,0,0,1,2.26,2.13,1.91,1.91,0,0,1-1.08,1.73l1.43,2.76Zm-.8-5.16h-.92V29h.92a.67.67,0,1,0,0-1.34Zm6.38,0v5.17H27.23V27.67H25.6V26.22h4.88v1.45Zm6.55,4.48a2.67,2.67,0,0,1-3.7,0A3.4,3.4,0,0,1,31,29.54a3.4,3.4,0,0,1,.67-2.62,2.67,2.67,0,0,1,3.7,0,3.4,3.4,0,0,1,.67,2.62A3.4,3.4,0,0,1,35.41,32.16Zm-1.2-4.25a.88.88,0,0,0-1.3,0c-.15.2-.24.42-.24,1.63s.09,1.42.24,1.62a.86.86,0,0,0,1.3,0c.15-.2.24-.41.24-1.62S34.35,28.1,34.21,27.91ZM41,32.85l-2.12-3.33v3.33H37.2V26.22h1.42l2.12,3.33V26.22h1.63v6.62Zm8.71,0H48.33l-1.07-3.27-1.07,3.27H44.87L43,26.22h1.7l.87,3.5,1.07-3.5h1.15l1.07,3.5.87-3.5h1.7Zm6.55-.69a2.67,2.67,0,0,1-3.7,0,3.4,3.4,0,0,1-.67-2.62,3.4,3.4,0,0,1,.67-2.62,2.67,2.67,0,0,1,3.7,0,3.4,3.4,0,0,1,.67,2.62A3.4,3.4,0,0,1,56.21,32.16ZM55,27.91a.88.88,0,0,0-1.3,0c-.15.2-.24.42-.24,1.63s.09,1.42.24,1.62a.86.86,0,0,0,1.3,0c.15-.2.24-.41.24-1.62S55.16,28.1,55,27.91Zm6.35,4.94-1.17-2.47h-.55v2.47H58V26.22h2.62a2.12,2.12,0,0,1,2.26,2.13,1.91,1.91,0,0,1-1.08,1.73l1.43,2.76Zm-.8-5.16h-.92V29h.92a.67.67,0,1,0,0-1.34Zm7.21,5.16-1.53-2.72-.56.64v2.08H64.08V26.22h1.61v2.34l1.92-2.34h2L67.33,28.9l2.34,3.95Zm4.46.06A3.23,3.23,0,0,1,69.72,32l1-1a2.16,2.16,0,0,0,1.48.47c.64,0,.95-.21.95-.6a.55.55,0,0,0-.13-.39.74.74,0,0,0-.44-.18l-.8-.11a2.24,2.24,0,0,1-1.33-.59A1.83,1.83,0,0,1,70,28.26a2.14,2.14,0,0,1,2.42-2.09,2.94,2.94,0,0,1,2.23.79l-1,1a1.64,1.64,0,0,0-1.26-.39c-.57,0-.8.33-.8.61a.44.44,0,0,0,.13.31.75.75,0,0,0,.46.2l.8.11a2.23,2.23,0,0,1,1.3.55,1.93,1.93,0,0,1,.49,1.45C74.79,32.17,73.62,32.9,72.23,32.9Zm3.64-5.16a.79.79,0,1,1,.79-.79A.79.79,0,0,1,75.87,27.75Zm0-1.43a.64.64,0,1,0,.63.64A.63.63,0,0,0,75.87,26.31ZM76,27.38,75.86,27h-.11v.34h-.16v-.85h.32a.26.26,0,0,1,.27.26A.24.24,0,0,1,76,27l.19.36Zm-.14-.72h-.14v.26h.14a.13.13,0,1,0,0-.26ZM58.51,20c.69,1.38-.17,4.39-.27,4.7H60a10.26,10.26,0,0,0,1.6-3.24A5.2,5.2,0,0,0,58.51,20Zm-9.07-1.49a26.57,26.57,0,0,1-1.29,6.19h1.7a8.86,8.86,0,0,0,1.75-3A5.55,5.55,0,0,0,49.44,18.53Zm19-1.4A7.79,7.79,0,0,0,66,10.93,8.28,8.28,0,0,0,63.3,10a6.86,6.86,0,0,0-3.52-1.24,1.22,1.22,0,0,0-.4,0s-.17.18-.22.25a8.15,8.15,0,0,0-1.48,4.38c.36,1.19,2.48,2.84,2.48,2.84a5.89,5.89,0,0,1-3-2.6,13.4,13.4,0,0,1,.18-3.25h0a17.45,17.45,0,0,0-6,1.85,9.29,9.29,0,0,0-2.74,3.5,8.63,8.63,0,0,0-.76,2.68c-.12.81-.51,2.45-.51,2.45a.26.26,0,0,0,.19-.06,10.86,10.86,0,0,1,1.55-3c3.74,1.57,3.21,6.5,3.17,6.85H54a12.38,12.38,0,0,0,.81-4.3c7-3.15,9,4,9.08,4.3h1.71a25.87,25.87,0,0,0-1.69-5.63c-.91-2,.11-2.56.26-2.58A2.92,2.92,0,0,1,66,17c.52.32.65.89.79,1.62.29,1.51.51,3.41,2,3.46a1.55,1.55,0,0,0,1.6-1.23L70,20.65a.69.69,0,0,1-.71.46C68.53,21.11,68.36,20,68.42,17.14Zm-2.19-2.87a.41.41,0,1,1,.41-.41A.41.41,0,0,1,66.23,14.26ZM37.73,21c.55,1.11-.14,3.51-.21,3.76h1.37a8.21,8.21,0,0,0,1.28-2.59A4.16,4.16,0,0,0,37.73,21Zm-7.26-1.2a21.26,21.26,0,0,1-1,5H30.8a7.09,7.09,0,0,0,1.4-2.38A4.44,4.44,0,0,0,30.48,19.77Zm15.18-1.12a6.23,6.23,0,0,0-1.9-5,6.63,6.63,0,0,0-2.2-.75,5.49,5.49,0,0,0-2.81-1,1,1,0,0,0-.32,0s-.14.15-.17.2a6.52,6.52,0,0,0-1.19,3.5c.29.95,2,2.27,2,2.27a4.72,4.72,0,0,1-2.38-2.08,10.72,10.72,0,0,1,.15-2.6h0A14,14,0,0,0,32,14.76a7.43,7.43,0,0,0-2.19,2.8,6.9,6.9,0,0,0-.6,2.14c-.09.65-.41,2-.41,2a.21.21,0,0,0,.16-.05,8.69,8.69,0,0,1,1.24-2.37c3,1.25,2.57,5.2,2.54,5.48H34.1a9.9,9.9,0,0,0,.65-3.44c5.62-2.52,7.19,3.18,7.26,3.44h1.37A20.7,20.7,0,0,0,42,20.22c-.73-1.57.09-2,.21-2.07a2.33,2.33,0,0,1,1.53.38c.42.26.52.71.63,1.29.23,1.21.41,2.73,1.63,2.77a1.24,1.24,0,0,0,1.28-1l-.42-.14a.55.55,0,0,1-.56.37C45.75,21.84,45.61,20.94,45.66,18.65Zm-1.75-2.3a.33.33,0,1,1,.33-.33A.33.33,0,0,1,43.91,16.36ZM21.1,21.69c.44.89-.11,2.81-.17,3H22a6.57,6.57,0,0,0,1-2.08A3.33,3.33,0,0,0,21.1,21.69Zm-5.8-1a17,17,0,0,1-.83,4h1.09a5.67,5.67,0,0,0,1.12-1.9A3.55,3.55,0,0,0,15.3,20.73Zm12.15-.89a5,5,0,0,0-1.52-4,5.3,5.3,0,0,0-1.76-.6,4.39,4.39,0,0,0-2.25-.8.78.78,0,0,0-.26,0s-.11.12-.14.16a5.22,5.22,0,0,0-.95,2.8c.23.76,1.59,1.82,1.59,1.82a3.77,3.77,0,0,1-1.9-1.66,8.58,8.58,0,0,1,.12-2.08h0a11.17,11.17,0,0,0-3.84,1.19A6,6,0,0,0,14.77,19a5.52,5.52,0,0,0-.48,1.71c-.07.52-.33,1.57-.33,1.57a.17.17,0,0,0,.12,0,7,7,0,0,1,1-1.9c2.4,1,2.06,4.16,2,4.39h1.09a7.92,7.92,0,0,0,.52-2.75c4.49-2,5.75,2.55,5.81,2.75h1.09a16.56,16.56,0,0,0-1.08-3.6c-.58-1.26.07-1.64.17-1.65a1.87,1.87,0,0,1,1.22.3c.33.2.41.57.5,1,.18,1,.33,2.18,1.31,2.21a1,1,0,0,0,1-.79l-.33-.11a.44.44,0,0,1-.45.29C27.51,22.39,27.41,21.67,27.44,19.84ZM26,18a.26.26,0,1,1,.26-.26A.26.26,0,0,1,26,18Z"/></g><g id="icon-hdf"><g id="path-icon-hdf"><path class="cls-3" d="M100.22,9.18a3.86,3.86,0,0,1,1.93.52l14,8.09a3.86,3.86,0,0,1,1.93,3.34V37.32a3.86,3.86,0,0,1-1.93,3.34l-14,8.09a3.86,3.86,0,0,1-3.86,0l-14-8.09a3.86,3.86,0,0,1-1.93-3.34V21.14a3.86,3.86,0,0,1,1.93-3.34l14-8.09A3.86,3.86,0,0,1,100.22,9.18Z"/></g><path id="text-icon-hdf" class="cls-2" d="M96.37,34h-2V29.83H91.48V34h-2V24.23h2v4H94.4v-4h2ZM98,34V24.23h2.59a3.56,3.56,0,0,1,2.73,1.09,4.27,4.27,0,0,1,1,3v1.59a4.28,4.28,0,0,1-1,3,3.64,3.64,0,0,1-2.81,1.1Zm2-8.14v6.5h.59a1.66,1.66,0,0,0,1.39-.52,3.1,3.1,0,0,0,.42-1.8v-1.7a3.48,3.48,0,0,0-.38-1.91,1.55,1.55,0,0,0-1.3-.57ZM110.78,30h-3.07v4h-2V24.23h5.42v1.65h-3.44v2.51h3.07Zm2.83-5.47h-.38v1.28h-.5V24.56h-.4v-.32h1.28Zm1.53.25-.31,1h-.24l-.31-1v1h-.45V24.23h.55l.33,1.09.36-1.09h.52v1.61h-.45Z"/></g><g id="text-dataflow"><path id="text-dataflow-2" data-name="text-dataflow" class="cls-4" d="M7.64,49V39.52H9.9a3.26,3.26,0,0,1,2.58,1,4.26,4.26,0,0,1,.92,2.92v1.59A4.18,4.18,0,0,1,12.46,48a3.46,3.46,0,0,1-2.7,1Zm1.19-8.46V48h1a2.22,2.22,0,0,0,1.84-.72,3.4,3.4,0,0,0,.59-2.13V43.45a3.44,3.44,0,0,0-.58-2.2,2.13,2.13,0,0,0-1.74-.7Zm12.15,6h-3.2L17,49H15.82l3.05-9.48h1L23,49H21.73Zm-2.89-1h2.58l-1.29-4.31Zm12.68-5H28.27V49H27.08V40.55H24.6v-1h6.17Zm6.38,6h-3.2L33.21,49H32L35,39.52h1L39.12,49H37.9Zm-2.89-1h2.58l-1.29-4.31Zm11.87-.68h-3.2V49H41.73V39.52h4.93v1H42.92v3.25h3.2ZM50.91,48h3.72v1H49.71V39.52h1.2ZM63.24,45.1a4.72,4.72,0,0,1-.83,3,2.82,2.82,0,0,1-2.35,1,2.85,2.85,0,0,1-2.31-1,4.51,4.51,0,0,1-.88-2.88V43.45a4.74,4.74,0,0,1,.84-3A2.8,2.8,0,0,1,60,39.39a2.84,2.84,0,0,1,2.33,1,4.65,4.65,0,0,1,.86,2.95ZM62,43.44a4.07,4.07,0,0,0-.49-2.24,1.89,1.89,0,0,0-3,0A3.93,3.93,0,0,0,58,43.4v1.7a4,4,0,0,0,.5,2.21,1.89,1.89,0,0,0,3,.06,3.94,3.94,0,0,0,.5-2.15Zm6.09,2.62.12,1.06.19-.94L70,39.57h1l1.47,6.61.19,1L72.75,46l1.16-6.48H75.1L73.22,49H72.14l-1.58-6.91-.1-.56-.1.56L68.72,49H67.64l-1.88-9.48H67Z"/></g></svg>